<svg width="128" height="128" viewBox="0 0 128 128" fill="none" xmlns="http://www.w3.org/2000/svg">
<path d="M59.4287 0H68.5714V36.7999C68.5714 45.1286 68.5714 49.2929 70.32 52.4153C71.5558 54.622 73.3779 56.4441 75.5846 57.6798C78.707 59.4284 82.8714 59.4284 91.2 59.4284H128V68.5714C95.1785 68.5714 68.5714 95.1786 68.5714 128H59.4287V91.2001C59.4287 82.8714 59.4287 78.7071 57.68 75.5846C56.4442 73.3778 54.6221 71.5559 52.4154 70.32C49.293 68.5714 45.1286 68.5714 36.8 68.5714H0V59.4284C32.8215 59.4284 59.4287 32.8214 59.4287 0Z" fill="black"/>
</svg>
